<svg id="SvgjsSvg1012" width="288" height="288" xmlns="http://www.w3.org/2000/svg" version="1.1" xmlns:xlink="http://www.w3.org/1999/xlink" xmlns:svgjs="http://svgjs.com/svgjs"><defs id="SvgjsDefs1013"></defs><g id="SvgjsG1014"><svg xmlns="http://www.w3.org/2000/svg" enable-background="new 0 0 48 48" viewBox="0 0 48 48" width="288" height="288"><path d="M42.2 8.7c0-2.9-2.3-5.2-5.2-5.2-2.9 0-5.2 2.3-5.2 5.2 0 2.9 2.3 5.2 5.2 5.2C39.9 13.9 42.2 11.6 42.2 8.7zM27.9 22.7h18.2c1 0 1.7-1 1.3-2-1.7-4-5.7-6.8-10.4-6.8s-8.6 2.8-10.4 6.8C26.2 21.6 26.9 22.7 27.9 22.7zM18.3 33.5c0-2.9-2.3-5.2-5.2-5.2s-5.2 2.3-5.2 5.2c0 2.9 2.3 5.2 5.2 5.2S18.3 36.4 18.3 33.5zM13.1 38.7c-4.6 0-8.6 2.8-10.4 6.8-.4.9.3 2 1.3 2h18.2c1 0 1.7-1 1.3-2C21.7 41.5 17.7 38.7 13.1 38.7zM42.2 33.5c0-2.9-2.3-5.2-5.2-5.2-2.9 0-5.2 2.3-5.2 5.2 0 2.9 2.3 5.2 5.2 5.2C39.9 38.7 42.2 36.4 42.2 33.5zM37 38.7c-4.6 0-8.6 2.8-10.4 6.8-.4.9.3 2 1.3 2h18.2c1 0 1.7-1 1.3-2C45.6 41.5 41.6 38.7 37 38.7zM13.1 9.7c-1.9 0-3.4 1.5-3.4 3.4s1.5 3.4 3.4 3.4c1.9 0 3.4-1.5 3.4-3.4S15 9.7 13.1 9.7z" fill="#888a9a" class="color000 svgShape"></path><path d="M13.1,0.5C6.1,0.5,0.5,6.1,0.5,13.1s5.6,12.6,12.6,12.6c6.9,0,12.6-5.6,12.6-12.6S20,0.5,13.1,0.5z M18.5,13.1
		c0,0.6-0.1,1.2-0.3,1.8l1.5,0.8l0.5-0.8l1.7,1l-2,3.4l-1.7-1l0.5-0.8l-1.5-0.8c-0.8,0.9-1.9,1.6-3.1,1.8l0,1.7h1v2h-3.9v-2h1l0-1.7
		c-1.2-0.2-2.3-0.9-3.1-1.8l-1.5,0.8L8,18.3l-1.7,1l-2-3.4l1.7-1l0.5,0.8L8,14.9c-0.2-0.6-0.3-1.2-0.3-1.8c0-0.6,0.1-1.2,0.3-1.8
		l-1.5-0.8l-0.5,0.8l-1.7-1l2-3.4l1.7,1L7.5,8.7L9,9.6c0.8-0.9,1.9-1.6,3.1-1.8V6.1h-1v-2H15v2h-1v1.7c1.2,0.2,2.3,0.9,3.1,1.8
		l1.5-0.8l-0.5-0.8l1.7-1l2,3.4l-1.7,1l-0.5-0.8l-1.5,0.8C18.4,11.9,18.5,12.5,18.5,13.1z" fill="#888a9a" class="color000 svgShape"></path></svg></g></svg>